<mxfile host="app.diagrams.net" agent="Mozilla/5.0 (Windows NT 10.0; Win64; x64) AppleWebKit/537.36 (KHTML, like Gecko) Chrome/128.0.0.0 YaBrowser/24.10.0.0 Safari/537.36" version="24.9.1">
  <diagram name="Диаграмма классов для игры Тетрис" id="kfvz6w6xAoVxWVqMSBBk">
    <mxGraphModel dx="2240" dy="596" grid="1" gridSize="10" guides="1" tooltips="1" connect="1" arrows="1" fold="1" page="1" pageScale="1" pageWidth="1169" pageHeight="1654" math="0" shadow="0">
      <root>
        <mxCell id="0" />
        <mxCell id="1" parent="0" />
        <mxCell id="4S76jrjOpWO9Tuhp8xzF-52" value="&#xa;    &#xa;        &#xa;        &#xa;        &#xa;        &#xa;    &#xa;    &#xa;        &#xa;        &#xa;        &#xa;        &#xa;    &#xa;    &#xa;        &#xa;        &#xa;    &#xa;    &#xa;        &#xa;        &#xa;        &#xa;    &#xa;    &#xa;        &#xa;    &#xa;    &#xa;        &#xa;    &#xa;    &#xa;        &#xa;        &#xa;    &#xa;    &#xa;        &#xa;        &#xa;        &#xa;        &#xa;    &#xa;    &#xa;        &#xa;        &#xa;    &#xa;    &#xa;        &#xa;    &#xa;    &#xa;        &#xa;        &#xa;    &#xa;    &#xa;        &#xa;        &#xa;    &#xa;    &#xa;        &#xa;        &#xa;    &#xa;    &#xa;        &#xa;    &#xa;    &#xa;    &#xa;    &#xa;    &#xa;    &#xa;    &#xa;" style="text;whiteSpace=wrap;html=1;" parent="1" vertex="1">
          <mxGeometry width="260" height="970" as="geometry" />
        </mxCell>
        <mxCell id="YDc8JTq9BG1FTdDbgutB-31" value="&lt;p style=&quot;margin:0px;margin-top:4px;text-align:center;&quot;&gt;Hotel&lt;/p&gt;&lt;hr size=&quot;1&quot; style=&quot;border-style:solid;&quot;&gt;&lt;p style=&quot;margin:0px;margin-left:4px;&quot;&gt;+ rooms&lt;span style=&quot;background-color: initial;&quot;&gt;: List&amp;lt;Room&amp;gt;&lt;/span&gt;&lt;/p&gt;&amp;nbsp;+ services: List&amp;lt;Service&amp;gt;&lt;br&gt;&lt;br&gt;&lt;hr size=&quot;1&quot; style=&quot;border-style:solid;&quot;&gt;&lt;p style=&quot;margin:0px;margin-left:4px;&quot;&gt;+ addRoom(room: Room): void&lt;/p&gt;&lt;p style=&quot;margin:0px;margin-left:4px;&quot;&gt;+ remove&lt;span style=&quot;background-color: initial;&quot;&gt;Room&lt;/span&gt;&lt;span style=&quot;background-color: initial;&quot;&gt;(roomNumber: int):&amp;nbsp;&lt;/span&gt;&lt;span style=&quot;background-color: initial;&quot;&gt;void&lt;/span&gt;&lt;/p&gt;&lt;p style=&quot;margin:0px;margin-left:4px;&quot;&gt;&lt;span style=&quot;background-color: initial;&quot;&gt;+ checkIn(&lt;/span&gt;&lt;span style=&quot;background-color: initial;&quot;&gt;roomNumber: int&lt;/span&gt;&lt;span style=&quot;background-color: initial;&quot;&gt;):&amp;nbsp;&lt;/span&gt;&lt;span style=&quot;background-color: initial;&quot;&gt;void&lt;/span&gt;&lt;/p&gt;&lt;p style=&quot;margin:0px;margin-left:4px;&quot;&gt;&lt;span style=&quot;background-color: initial;&quot;&gt;+&amp;nbsp;&lt;/span&gt;&lt;span style=&quot;background-color: initial;&quot;&gt;checkout&lt;/span&gt;&lt;span style=&quot;background-color: initial;&quot;&gt;(&lt;/span&gt;&lt;span style=&quot;background-color: initial;&quot;&gt;roomNumber: int&lt;/span&gt;&lt;span style=&quot;background-color: initial;&quot;&gt;) :&amp;nbsp;&lt;/span&gt;&lt;span style=&quot;background-color: initial;&quot;&gt;void&lt;/span&gt;&lt;/p&gt;&lt;p style=&quot;margin:0px;margin-left:4px;&quot;&gt;+ setRoomStatus(roomNumber: int, status: String) : void&lt;/p&gt;&lt;p style=&quot;margin:0px;margin-left:4px;&quot;&gt;+&lt;span style=&quot;background-color: initial;&quot;&gt;&amp;nbsp;&lt;/span&gt;setRoomPrice&lt;span style=&quot;background-color: initial;&quot;&gt;(&lt;/span&gt;roomNumber: int, price: double&lt;span style=&quot;background-color: initial;&quot;&gt;) : void&lt;/span&gt;&lt;/p&gt;&lt;p style=&quot;margin:0px;margin-left:4px;&quot;&gt;+ addService(service: Service) : void&lt;span style=&quot;background-color: initial;&quot;&gt;&lt;br&gt;&lt;/span&gt;&lt;/p&gt;&lt;p style=&quot;margin:0px;margin-left:4px;&quot;&gt;&lt;br&gt;&lt;/p&gt;" style="verticalAlign=top;align=left;overflow=fill;html=1;whiteSpace=wrap;" parent="1" vertex="1">
          <mxGeometry x="160" y="41" width="310" height="210" as="geometry" />
        </mxCell>
        <mxCell id="YDc8JTq9BG1FTdDbgutB-40" value="&lt;span style=&quot;font-weight: normal;&quot;&gt;Room&lt;/span&gt;" style="swimlane;fontStyle=1;align=center;verticalAlign=top;childLayout=stackLayout;horizontal=1;startSize=26;horizontalStack=0;resizeParent=1;resizeParentMax=0;resizeLast=0;collapsible=1;marginBottom=0;whiteSpace=wrap;html=1;" parent="1" vertex="1">
          <mxGeometry x="-140" y="95" width="200" height="210" as="geometry" />
        </mxCell>
        <mxCell id="YDc8JTq9BG1FTdDbgutB-41" value="+ number : int&lt;div&gt;+ status : String&lt;/div&gt;&lt;div&gt;+ price : double&lt;/div&gt;" style="text;strokeColor=none;fillColor=none;align=left;verticalAlign=top;spacingLeft=4;spacingRight=4;overflow=hidden;rotatable=0;points=[[0,0.5],[1,0.5]];portConstraint=eastwest;whiteSpace=wrap;html=1;" parent="YDc8JTq9BG1FTdDbgutB-40" vertex="1">
          <mxGeometry y="26" width="200" height="54" as="geometry" />
        </mxCell>
        <mxCell id="YDc8JTq9BG1FTdDbgutB-42" value="" style="line;strokeWidth=1;fillColor=none;align=left;verticalAlign=middle;spacingTop=-1;spacingLeft=3;spacingRight=3;rotatable=0;labelPosition=right;points=[];portConstraint=eastwest;strokeColor=inherit;" parent="YDc8JTq9BG1FTdDbgutB-40" vertex="1">
          <mxGeometry y="80" width="200" height="8" as="geometry" />
        </mxCell>
        <mxCell id="YDc8JTq9BG1FTdDbgutB-43" value="+ Room(number : int, price : double) : void&lt;div&gt;+ getNumber() : int&lt;/div&gt;&lt;div&gt;+ getStatus() : String&lt;/div&gt;&lt;div&gt;+ setStatus(status: String) : void&lt;br&gt;&lt;/div&gt;&lt;div&gt;+ getPrice() : double&lt;br&gt;&lt;/div&gt;&lt;div&gt;+ setPrice(price : double) : void&lt;br&gt;&lt;/div&gt;&lt;div&gt;&lt;br&gt;&lt;/div&gt;" style="text;strokeColor=none;fillColor=none;align=left;verticalAlign=top;spacingLeft=4;spacingRight=4;overflow=hidden;rotatable=0;points=[[0,0.5],[1,0.5]];portConstraint=eastwest;whiteSpace=wrap;html=1;" parent="YDc8JTq9BG1FTdDbgutB-40" vertex="1">
          <mxGeometry y="88" width="200" height="122" as="geometry" />
        </mxCell>
        <mxCell id="YDc8JTq9BG1FTdDbgutB-44" value="&lt;span style=&quot;font-weight: normal;&quot;&gt;Sevice&lt;/span&gt;" style="swimlane;fontStyle=1;align=center;verticalAlign=top;childLayout=stackLayout;horizontal=1;startSize=26;horizontalStack=0;resizeParent=1;resizeParentMax=0;resizeLast=0;collapsible=1;marginBottom=0;whiteSpace=wrap;html=1;" parent="1" vertex="1">
          <mxGeometry x="550" y="110" width="190" height="180" as="geometry" />
        </mxCell>
        <mxCell id="YDc8JTq9BG1FTdDbgutB-45" value="+ name: String&lt;div&gt;+ price: double&lt;/div&gt;" style="text;strokeColor=none;fillColor=none;align=left;verticalAlign=top;spacingLeft=4;spacingRight=4;overflow=hidden;rotatable=0;points=[[0,0.5],[1,0.5]];portConstraint=eastwest;whiteSpace=wrap;html=1;" parent="YDc8JTq9BG1FTdDbgutB-44" vertex="1">
          <mxGeometry y="26" width="190" height="44" as="geometry" />
        </mxCell>
        <mxCell id="YDc8JTq9BG1FTdDbgutB-46" value="" style="line;strokeWidth=1;fillColor=none;align=left;verticalAlign=middle;spacingTop=-1;spacingLeft=3;spacingRight=3;rotatable=0;labelPosition=right;points=[];portConstraint=eastwest;strokeColor=inherit;" parent="YDc8JTq9BG1FTdDbgutB-44" vertex="1">
          <mxGeometry y="70" width="190" height="8" as="geometry" />
        </mxCell>
        <mxCell id="YDc8JTq9BG1FTdDbgutB-47" value="+ Service(name:String, price: double) : void&lt;div&gt;+ getName() : void&lt;/div&gt;&lt;div&gt;+ getPrice() : double&lt;/div&gt;&lt;div&gt;+ setPrice(price: double) : void&lt;/div&gt;" style="text;strokeColor=none;fillColor=none;align=left;verticalAlign=top;spacingLeft=4;spacingRight=4;overflow=hidden;rotatable=0;points=[[0,0.5],[1,0.5]];portConstraint=eastwest;whiteSpace=wrap;html=1;" parent="YDc8JTq9BG1FTdDbgutB-44" vertex="1">
          <mxGeometry y="78" width="190" height="102" as="geometry" />
        </mxCell>
        <mxCell id="5Pcoe3s0r2WO1fweUyR8-1" value="" style="endArrow=open;endFill=1;endSize=12;html=1;rounded=0;entryX=1.008;entryY=0.577;entryDx=0;entryDy=0;entryPerimeter=0;exitX=0;exitY=0.133;exitDx=0;exitDy=0;exitPerimeter=0;" edge="1" parent="1" source="YDc8JTq9BG1FTdDbgutB-47" target="YDc8JTq9BG1FTdDbgutB-31">
          <mxGeometry width="160" relative="1" as="geometry">
            <mxPoint x="260" y="250" as="sourcePoint" />
            <mxPoint x="420" y="250" as="targetPoint" />
          </mxGeometry>
        </mxCell>
        <mxCell id="5Pcoe3s0r2WO1fweUyR8-2" value="" style="endArrow=open;endFill=1;endSize=12;html=1;rounded=0;exitX=0;exitY=0.534;exitDx=0;exitDy=0;exitPerimeter=0;entryX=1.019;entryY=0.3;entryDx=0;entryDy=0;entryPerimeter=0;" edge="1" parent="1" source="YDc8JTq9BG1FTdDbgutB-31" target="YDc8JTq9BG1FTdDbgutB-43">
          <mxGeometry width="160" relative="1" as="geometry">
            <mxPoint x="220" y="290" as="sourcePoint" />
            <mxPoint x="380" y="290" as="targetPoint" />
          </mxGeometry>
        </mxCell>
      </root>
    </mxGraphModel>
  </diagram>
</mxfile>
